Coordinates
version=1
nRows=24
nColumns=38
inDegrees=no

Units are S.I. units (second, meters, Newtons, ...)
If the header above contains a line with 'inDegrees', this indicates whether rotational values are in degrees (yes) or radians (no).

endheader
time	pelvis_tilt	pelvis_list	pelvis_rotation	pelvis_tx	pelvis_ty	pelvis_tz	hip_flexion_r	hip_adduction_r	hip_rotation_r	knee_angle_r	ankle_angle_r	subtalar_angle_r	mtp_angle_r	hip_flexion_l	hip_adduction_l	hip_rotation_l	knee_angle_l	ankle_angle_l	subtalar_angle_l	mtp_angle_l	lumbar_extension	lumbar_bending	lumbar_rotation	arm_flex_r	arm_add_r	arm_rot_r	elbow_flex_r	pro_sup_r	wrist_flex_r	wrist_dev_r	arm_flex_l	arm_add_l	arm_rot_l	elbow_flex_l	pro_sup_l	wrist_flex_l	wrist_dev_l
1.94	-0.109924	-0.0379297	-0.0563684	1.01447	0.998025	-0.347385	0.250149	0.159285	0.18929	-0.694473	0.425349	-0.000618317	1.62763e-06	0.51503	-0.116627	-0.14108	-1.39876	0.131548	0.0477166	-6.92876e-06	-0.150515	0.0732068	0.158444	-0.224759	-0.300744	-0.0838052	1.7305	1.99514	0.0533436	-0.0226169	-0.544493	-0.209499	-0.028361	1.78732	1.79828	0.0304626	0.0234192
1.95	-0.116216	-0.0298333	-0.0529398	1.01494	1.00305	-0.347806	0.217961	0.146145	0.189037	-0.658304	0.397718	-0.000618317	1.62763e-06	0.53507	-0.107451	-0.146061	-1.35999	0.13876	0.0477166	-6.92876e-06	-0.141805	0.0616408	0.168386	-0.220416	-0.297779	-0.0741764	1.77382	2.00526	0.0533436	-0.0226169	-0.565925	-0.21482	-0.0373795	1.81874	1.78519	0.0304626	0.0234192
1.96	-0.122845	-0.0213517	-0.0489532	1.01562	1.00862	-0.348258	0.186913	0.132172	0.18649	-0.621918	0.362153	-0.000618317	1.62763e-06	0.552081	-0.0980947	-0.153822	-1.31398	0.145493	0.0477166	-6.92876e-06	-0.132621	0.049455	0.176769	-0.218713	-0.294487	-0.064869	1.8198	2.01715	0.0533436	-0.0226169	-0.587293	-0.219506	-0.0478076	1.85255	1.77636	0.0304626	0.0234192
1.97	-0.129582	-0.0127321	-0.044471	1.01645	1.01458	-0.348754	0.157467	0.117776	0.181423	-0.586551	0.31944	-0.000618317	1.62763e-06	0.565959	-0.088299	-0.163279	-1.26129	0.151486	0.0477166	-6.92876e-06	-0.123468	0.0369987	0.183509	-0.218817	-0.291077	-0.0554863	1.8665	2.03066	0.0533436	-0.0226169	-0.607886	-0.223195	-0.0594946	1.8866	1.77148	0.0304626	0.0234192
1.98	-0.136256	-0.00420474	-0.0396127	1.01739	1.02078	-0.34931	0.130013	0.103356	0.173839	-0.553273	0.270748	-0.000618317	1.62763e-06	0.5767	-0.0776694	-0.173021	-1.20252	0.15645	0.0477166	-6.92876e-06	-0.114716	0.0246058	0.188644	-0.22009	-0.287775	-0.0456982	1.91235	2.04515	0.0533436	-0.0226169	-0.627133	-0.225599	-0.0722099	1.91923	1.76951	0.0304626	0.0234192
1.99	-0.142762	0.00401472	-0.034533	1.01841	1.02706	-0.34994	0.104872	0.0892928	0.164002	-0.522987	0.217538	-0.000618317	1.62763e-06	0.584394	-0.0657999	-0.181459	-1.13828	0.160165	0.0477166	-6.92876e-06	-0.106584	0.0125923	0.192298	-0.222084	-0.284801	-0.0352586	1.95614	2.05964	0.0533436	-0.0226169	-0.644621	-0.226511	-0.0856886	1.94931	1.76912	0.0304626	0.0234192
2	-0.149041	0.0117173	-0.029389	1.01947	1.03324	-0.350654	0.0822944	0.0759589	0.152423	-0.496449	0.161465	-0.000618317	1.62763e-06	0.589209	-0.0524026	-0.187009	-1.0693	0.162552	0.0477166	-6.92876e-06	-0.0991543	0.00125336	0.194638	-0.224514	-0.28235	-0.0240167	1.99696	2.07291	0.0533436	-0.0226169	-0.660079	-0.225812	-0.0996665	1.97623	1.76908	0.0304626	0.0234192
2.01	-0.155066	0.0186984	-0.0243112	1.02056	1.03917	-0.351455	0.062465	0.0637163	0.139806	-0.4743	0.104267	-0.000618317	1.62763e-06	0.591375	-0.0374115	-0.188301	-0.996407	0.163731	0.0477166	-6.92876e-06	-0.0924096	-0.00914083	0.195844	-0.227209	-0.280563	-0.0119251	2.03404	2.08366	0.0533436	-0.0226169	-0.673353	-0.223482	-0.113895	1.99981	1.76848	0.0304626	0.0234192
2.02	-0.160815	0.0247661	-0.0193926	1.02166	1.04468	-0.352338	0.0455065	0.0529055	0.126976	-0.457108	0.0476828	-0.000618317	1.62763e-06	0.591167	-0.0210438	-0.184396	-0.92063	0.164026	0.0477166	-6.92876e-06	-0.0862828	-0.0183514	0.19609	-0.230081	-0.279514	0.000950731	2.06677	2.09079	0.0533436	-0.0226169	-0.684372	-0.219605	-0.128133	2.02021	1.76692	0.0304626	0.0234192
2.03	-0.166252	0.0297569	-0.0147004	1.02275	1.04966	-0.353291	0.0314745	0.0438231	0.114794	-0.445391	-0.00660834	-0.000618317	1.62763e-06	0.58888	-0.00380623	-0.174974	-0.843194	0.163918	0.0477166	-6.92876e-06	-0.0807001	-0.0261834	0.19555	-0.233101	-0.279203	0.0144145	2.09458	2.09368	0.0533436	-0.0226169	-0.693116	-0.214357	-0.142135	2.03778	1.76439	0.0304626	0.0234192
2.04	-0.171316	0.0335494	-0.0102999	1.02385	1.05399	-0.35429	0.0203521	0.0366951	0.104088	-0.439619	-0.057034	-0.000618317	1.62763e-06	0.584822	0.013556	-0.160459	-0.765543	0.163945	0.0477166	-6.92876e-06	-0.0756118	-0.0325034	0.194425	-0.236306	-0.279555	0.0281214	2.11705	2.09242	0.0533436	-0.0226169	-0.699593	-0.207996	-0.155628	2.05295	1.76124	0.0304626	0.0234192
2.05	-0.17591	0.0360743	-0.00627285	1.02494	1.05756	-0.355306	0.0120432	0.0316591	0.0955926	-0.440196	-0.102169	-0.000618317	1.62763e-06	0.579304	0.0301595	-0.142014	-0.689315	0.16457	0.0477166	-6.92876e-06	-0.0710104	-0.0372531	0.192947	-0.239801	-0.280427	0.0415733	2.1339	2.08786	0.0533436	-0.0226169	-0.703824	-0.200837	-0.168318	2.06615	1.75799	0.0304626	0.0234192
2.06	-0.179909	0.0373128	-0.00271892	1.02604	1.06032	-0.3563	0.00637148	0.0287615	0.0899055	-0.447429	-0.140779	-0.000618317	1.62763e-06	0.572645	0.0451156	-0.121391	-0.616291	0.166036	0.0477166	-6.92876e-06	-0.0669346	-0.0404555	0.191366	-0.243755	-0.281624	0.0541432	2.14503	2.08142	0.0533436	-0.0226169	-0.705834	-0.193216	-0.179913	2.07774	1.7552	0.0304626	0.0234192
2.07	-0.183161	0.0372835	0.000258326	1.02714	1.06221	-0.357231	0.00310806	0.0279659	0.087435	-0.461513	-0.171862	-0.000618317	1.62763e-06	0.56518	0.0576686	-0.100648	-0.548315	0.168276	0.0477166	-6.92876e-06	-0.0634519	-0.0422163	0.189902	-0.248376	-0.282923	0.0651373	2.15054	2.07461	0.0533436	-0.0226169	-0.705673	-0.18545	-0.19017	2.08801	1.75334	0.0304626	0.0234192
2.08	-0.185501	0.0360879	0.00257824	1.02827	1.0632	-0.358061	0.00202017	0.0291853	0.0883595	-0.482531	-0.194698	-0.000618317	1.62763e-06	0.557275	0.0672835	-0.0818006	-0.48721	0.170888	0.0477166	-6.92876e-06	-0.0606315	-0.0426824	0.188702	-0.253879	-0.2841	0.0738731	2.15072	2.06873	0.0533436	-0.0226169	-0.703417	-0.177803	-0.198936	2.09713	1.75274	0.0304626	0.0234192
2.09	-0.186822	0.0338888	0.00420547	1.02942	1.06326	-0.358761	0.00291346	0.0322945	0.0925995	-0.510474	-0.208896	-0.000618317	1.62763e-06	0.549326	0.0737022	-0.0665019	-0.434694	0.173202	0.0477166	-6.92876e-06	-0.0585344	-0.0420256	0.187808	-0.26044	-0.284958	0.0797676	2.14596	2.06464	0.0533436	-0.0226169	-0.699184	-0.170469	-0.206169	2.10523	1.75357	0.0304626	0.0234192
2.1	-0.187096	0.0308753	0.00516431	1.03058	1.06236	-0.359319	0.00566986	0.0371196	0.0997963	-0.545237	-0.214455	-0.000618317	1.62763e-06	0.541761	0.0769668	-0.0558002	-0.392327	0.174422	0.0477166	-6.92876e-06	-0.0572	-0.0404407	0.187133	-0.268164	-0.285343	0.0824239	2.13674	2.06269	0.0533436	-0.0226169	-0.693122	-0.163574	-0.211947	2.11234	1.75582	0.0304626	0.0234192
2.11	-0.186352	0.0272543	0.00555294	1.03173	1.0605	-0.359737	0.0102616	0.0434097	0.1093	-0.586598	-0.211823	-0.000618317	1.62763e-06	0.535043	0.0774089	-0.0500165	-0.361463	0.173828	0.0477166	-6.92876e-06	-0.0566395	-0.0381527	0.18645	-0.277043	-0.285154	0.0816934	2.1235	2.06276	0.0533436	-0.0226169	-0.68539	-0.157187	-0.216441	2.11844	1.75928	0.0304626	0.0234192
2.12	-0.184673	0.0232567	0.00554647	1.03286	1.05769	-0.360041	0.0167249	0.0508001	0.120177	-0.63417	-0.201939	-0.000618317	1.62763e-06	0.529656	0.0756157	-0.0487358	-0.343224	0.171018	0.0477166	-6.92876e-06	-0.0568588	-0.0354282	0.185406	-0.286943	-0.284333	0.0776923	2.1066	2.06436	0.0533436	-0.0226169	-0.676122	-0.151358	-0.219877	2.1234	1.76361	0.0304626	0.0234192
2.13	-0.182185	0.0191409	0.00537943	1.03392	1.05392	-0.360271	0.0251455	0.0587786	0.131244	-0.687377	-0.186196	-0.000618317	1.62763e-06	0.526096	0.0723663	-0.0509494	-0.338492	0.166193	0.0477166	-6.92876e-06	-0.0578701	-0.0325861	0.183568	-0.297598	-0.282846	0.0707728	2.08623	2.06677	0.0533436	-0.0226169	-0.665383	-0.146146	-0.222477	2.12699	1.7683	0.0304626	0.0234192
2.14	-0.179061	0.0152196	0.00531634	1.03486	1.04917	-0.360479	0.0356354	0.0666885	0.141183	-0.745462	-0.166309	-0.000618317	1.62763e-06	0.524816	0.0685476	-0.0552524	-0.34781	0.160377	0.0477166	-6.92876e-06	-0.0597119	-0.0299872	0.180491	-0.308637	-0.280661	0.0614448	2.06238	2.06926	0.0533436	-0.0226169	-0.653129	-0.141645	-0.224399	2.12883	1.77277	0.0304626	0.0234192
2.15	-0.175428	0.0119105	0.00560209	1.03564	1.04345	-0.360714	0.0483327	0.0737997	0.148739	-0.807507	-0.144093	-0.000618317	1.62763e-06	0.526155	0.0650509	-0.0600786	-0.371201	0.155453	0.0477166	-6.92876e-06	-0.0624232	-0.0279897	0.175806	-0.319629	-0.277723	0.0502668	2.03482	2.07124	0.0533436	-0.0226169	-0.639174	-0.138011	-0.225671	2.12834	1.77648	0.0304626	0.0234192
2.16	-0.171441	0.00949869	0.00639934	1.03617	1.03686	-0.360999	0.0633659	0.0793603	0.152966	-0.872492	-0.121196	-0.000618317	1.62763e-06	0.530182	0.0627108	-0.0639765	-0.407929	0.153888	0.0477166	-6.92876e-06	-0.0660588	-0.0269939	0.169297	-0.330145	-0.273949	0.0377294	2.00318	2.07255	0.0533436	-0.0226169	-0.623188	-0.135464	-0.226152	2.12479	1.77899	0.0304626	0.0234192
2.17	-0.167203	0.00823915	0.00777923	1.03642	1.02959	-0.361336	0.0808322	0.0827585	0.153407	-0.939301	-0.0988792	-0.000618317	1.62763e-06	0.53658	0.0621495	-0.0658421	-0.456258	0.15815	0.0477166	-6.92876e-06	-0.0706464	-0.0273164	0.160963	-0.339825	-0.269228	0.024175	1.96701	2.0735	0.0533436	-0.0226169	-0.604735	-0.134275	-0.225518	2.1173	1.78011	0.0304626	0.0234192
